<svg width="25" height="28" viewBox="0 0 25 28" fill="none" xmlns="http://www.w3.org/2000/svg">
<path d="M10.0165 10.425C7.25816 10.425 5.0165 12.6667 5.0165 15.425V17.8334C5.0165 18.3417 4.79983 19.1167 4.5415 19.55L3.58316 21.1417C2.9915 22.125 3.39983 23.2167 4.48316 23.5834C8.07483 24.7834 11.9498 24.7834 15.5415 23.5834C16.5498 23.2501 16.9915 22.0584 16.4415 21.1417L15.4832 19.55C15.2332 19.1167 15.0165 18.3417 15.0165 17.8334V15.425C15.0165 12.675 12.7665 10.425 10.0165 10.425Z" stroke="#474141" stroke-width="1.5" stroke-miterlimit="10" stroke-linecap="round"/>
<path d="M11.5584 10.6667C11.3001 10.5917 11.0334 10.5334 10.7584 10.5C9.95843 10.4 9.19176 10.4584 8.4751 10.6667C8.71676 10.05 9.31676 9.6167 10.0168 9.6167C10.7168 9.6167 11.3168 10.05 11.5584 10.6667Z" stroke="#474141" stroke-width="1.5" stroke-miterlimit="10" stroke-linecap="round" stroke-linejoin="round"/>
<path d="M12.5166 23.8833C12.5166 25.2583 11.3916 26.3833 10.0166 26.3833C9.33327 26.3833 8.69993 26.1 8.24993 25.65C7.79993 25.2 7.5166 24.5666 7.5166 23.8833" stroke="#474141" stroke-width="1.5" stroke-miterlimit="10"/>
<circle cx="17.5" cy="7.5" r="7.5" fill="#ED1571"/>
<path d="M15.39 9.63C15.6167 9.45 15.72 9.36667 15.7 9.38C16.3533 8.84 16.8667 8.39667 17.24 8.05C17.62 7.70333 17.94 7.34 18.2 6.96C18.46 6.58 18.59 6.21 18.59 5.85C18.59 5.57667 18.5267 5.36333 18.4 5.21C18.2733 5.05667 18.0833 4.98 17.83 4.98C17.5767 4.98 17.3767 5.07667 17.23 5.27C17.09 5.45667 17.02 5.72333 17.02 6.07H15.37C15.3833 5.50333 15.5033 5.03 15.73 4.65C15.9633 4.27 16.2667 3.99 16.64 3.81C17.02 3.63 17.44 3.54 17.9 3.54C18.6933 3.54 19.29 3.74333 19.69 4.15C20.0967 4.55667 20.3 5.08667 20.3 5.74C20.3 6.45333 20.0567 7.11667 19.57 7.73C19.0833 8.33667 18.4633 8.93 17.71 9.51H20.41V10.9H15.39V9.63Z" fill="white"/>
</svg>
